<svg width="1220" height="463" viewBox="0 0 1220 463" fill="none" xmlns="http://www.w3.org/2000/svg">
<g clip-path="url(#clip0_13_81)">
<path d="M448.653 100.027C451.052 97.0324 454.051 94.6365 457.05 91.6417L461.849 97.0324C459.449 99.4282 457.05 101.824 454.051 105.418L448.653 100.027Z" fill="#A60ECA"/>
<path d="M449.853 404.9C446.254 407.895 442.055 409.692 438.456 412.687L433.658 404.9C437.257 402.504 440.855 400.708 444.454 397.114L449.853 404.9Z" fill="#A60ECA"/>
<path d="M392.271 150.34C395.87 140.757 400.069 132.371 403.668 123.387L407.866 125.783C403.668 134.168 398.869 142.554 395.27 151.538C394.671 151.538 394.071 150.939 392.271 150.34Z" fill="#A60ECA"/>
<path d="M410.266 109.611L421.062 90.4437L427.06 94.0375L415.664 112.605L410.266 109.611Z" fill="#A60ECA"/>
<path d="M428.859 77.8655L437.257 65.2872L443.854 70.0789L434.857 82.0582L428.859 77.8655Z" fill="#A60ECA"/>
<path d="M446.254 53.3079C454.051 43.7245 462.448 34.141 472.045 26.3545C481.642 18.5679 491.839 10.7814 503.835 5.98965L507.434 16.771C497.237 20.3648 487.04 26.9534 478.643 34.141C469.646 41.9276 461.249 49.7141 453.451 59.2975L446.254 53.3079Z" fill="#A60ECA"/>
<path d="M520.029 0.598967C527.827 -0.598963 535.624 -0.598963 544.022 1.19793L541.023 13.1772C534.425 11.3803 528.427 11.3803 521.829 11.9793L520.029 0.598967Z" fill="#A60ECA"/>
<path d="M560.216 9.58344C564.415 12.5783 569.213 16.1721 572.812 19.7658C572.812 19.7658 577.011 23.9586 583.609 34.141C580.01 37.1358 572.212 40.7296 572.212 40.7296L563.215 28.7503C560.216 25.7555 556.617 22.1617 553.019 20.3648L560.216 9.58344Z" fill="#FF007A"/>
<path d="M583.009 32.9431C590.206 44.3234 594.405 56.3027 597.404 68.881C600.403 81.4593 602.203 94.0375 604.002 106.616L590.207 107.814C589.607 95.8344 587.807 83.8551 585.408 72.4748C583.009 61.0944 578.21 49.7141 572.812 40.1307L583.009 32.9431Z" fill="#FF007A"/>
<path d="M604.602 122.788L590.806 123.387C590.806 146.746 588.407 174.898 588.407 174.898L602.802 176.695C601.603 176.096 604.602 146.746 604.602 122.788Z" fill="#FF007A"/>
<path d="M600.403 194.065C598.604 206.643 596.205 219.221 593.206 231.2C590.206 243.779 586.608 255.758 583.009 267.737L569.813 262.347C573.412 250.367 577.011 238.987 579.41 227.008C581.809 215.028 584.208 203.049 586.608 191.07L600.403 194.065Z" fill="#FF007A"/>
<path d="M578.21 283.31L570.413 304.873L556.618 298.884L563.815 277.321L578.21 283.31Z" fill="#A60ECA"/>
<path d="M554.218 342.608C548.82 353.988 542.222 364.77 535.025 374.952C527.827 385.733 521.229 395.916 512.832 404.9L502.635 395.916C510.433 386.332 516.431 376.15 523.628 366.567C530.226 356.384 535.624 345.603 541.023 334.821L554.218 342.608Z" fill="#A60ECA"/>
<path d="M502.035 416.88C497.237 422.27 491.839 428.26 486.441 433.052L477.443 422.869C482.242 418.078 487.64 412.088 491.839 407.296L502.035 416.88Z" fill="#A60ECA"/>
<path d="M473.245 442.635C469.646 445.63 464.848 449.224 461.249 451.62L454.651 440.838C458.25 438.442 462.448 435.448 466.047 431.854L473.245 442.635Z" fill="#FF007A"/>
<path d="M569.813 334.222C567.414 339.014 565.015 344.405 561.416 348.598L550.02 341.41C552.419 337.217 554.818 331.827 557.817 327.035L569.813 334.222Z" fill="#A60ECA"/>
<path d="M527.227 419.276C523.628 423.468 519.43 428.26 515.831 432.453L506.234 422.27C509.833 418.677 513.432 413.885 516.431 409.692L527.227 419.276Z" fill="#FF007A"/>
<path d="M447.453 455.213C442.055 457.609 436.057 460.005 430.059 461.802C424.061 463.599 417.463 463.599 410.865 463C404.267 462.401 398.269 460.604 391.672 458.208C386.273 455.812 380.275 451.62 376.077 446.828L381.475 439.64C385.674 443.234 390.472 446.828 395.27 448.625C397.67 449.823 400.069 450.422 403.068 451.021C405.467 451.62 407.866 452.219 410.865 452.219C415.664 452.219 421.662 451.62 426.46 450.422C431.259 449.224 437.257 446.828 441.455 443.833L447.453 455.213Z" fill="#A60ECA"/>
<path d="M367.679 439.64C363.481 433.052 359.882 425.864 357.483 418.677L364.68 415.682C367.08 422.869 371.278 428.859 374.877 434.849L367.679 439.64Z" fill="#A60ECA"/>
<path d="M353.284 404.301C352.085 399.51 351.485 394.119 350.885 389.327L356.283 388.129C356.883 392.921 358.083 397.713 359.282 402.505L353.284 404.301Z" fill="#A60ECA"/>
<path d="M350.885 368.962C350.285 355.785 350.885 342.608 352.684 329.431H355.084C354.484 342.608 355.084 355.785 355.683 368.364L350.885 368.962Z" fill="#A60ECA"/>
<path d="M405.467 144.95C409.666 135.965 418.663 119.793 423.461 111.408L428.859 115.001C424.061 123.387 414.464 138.96 409.066 147.345L405.467 144.95Z" fill="#A60ECA"/>
<path d="M429.459 104.22L436.657 92.8396L443.255 97.6313L435.457 108.413L429.459 104.22Z" fill="#FF007A"/>
<path d="M446.854 78.4644C454.051 69.4799 461.249 61.0944 469.046 53.3079C477.443 45.5213 485.841 38.3338 496.037 32.3441L500.236 41.3286C491.239 45.5213 482.842 52.7089 475.044 59.2975C467.247 67.0841 460.049 74.2717 452.852 83.2561L446.854 78.4644Z" fill="#FF007A"/>
<path d="M512.832 26.9534C517.031 25.7555 522.429 25.7555 527.227 26.3545L526.028 37.1358C522.429 36.5369 518.23 36.5369 514.631 37.1358L512.832 26.9534Z" fill="#A60ECA"/>
<path d="M538.623 42.5265L544.621 33.542L538.623 42.5265Z" fill="#0075CC"/>
<path d="M545.221 33.542C550.02 37.1358 554.218 42.5265 557.217 47.3182C560.216 52.11 562.615 58.0996 565.015 63.4903C569.213 74.8706 571.613 86.251 573.412 97.6313L561.416 99.4282C560.216 88.6468 558.417 77.8655 554.218 67.6831C552.419 62.8913 550.619 58.0996 547.62 53.9069C545.221 49.7141 542.222 45.5213 538.024 42.5265L545.221 33.542Z" fill="#A60ECA"/>
<path d="M575.211 112.605L575.811 126.382L563.215 127.58V113.803L575.211 112.605Z" fill="#A60ECA"/>
<path d="M626.794 106.616L627.994 122.788H615.398V107.814L626.794 106.616Z" fill="#FF007A"/>
<path d="M606.401 59.8965L610.6 78.4644L596.205 81.4593L592.606 63.4903L606.401 59.8965Z" fill="#FF007A"/>
<path d="M575.211 150.939C574.612 162.32 574.012 173.7 572.812 185.08C571.613 196.461 569.813 207.841 567.414 219.221L554.218 216.226C556.618 205.445 558.417 194.065 559.617 183.283C560.816 172.502 562.016 161.122 562.616 150.34L575.211 150.939Z" fill="#A60ECA"/>
<path d="M557.817 259.951C554.818 270.732 550.619 281.514 546.421 292.295C542.222 303.076 537.424 313.259 532.625 322.842L520.629 316.254C524.828 306.071 529.626 295.889 533.825 286.305C537.424 276.123 541.622 265.342 544.621 254.56L557.817 259.951Z" fill="#A60ECA"/>
<path d="M525.428 347.4L518.83 359.379L508.033 351.593L514.631 340.212L525.428 347.4Z" fill="#FF007A"/>
<path d="M513.432 352.191C498.437 376.15 490.639 386.332 483.442 394.718C475.644 403.702 468.446 411.489 460.049 419.276L452.852 410.291C460.649 403.103 467.847 395.317 474.444 386.931C481.642 378.546 496.637 354.587 502.635 345.603L513.432 352.191Z" fill="#FF007A"/>
<path d="M445.654 430.057C442.055 432.453 437.857 434.849 433.658 437.244L430.059 427.062C433.658 425.265 437.257 423.468 440.855 420.473L445.654 430.057Z" fill="#A60ECA"/>
<path d="M416.863 442.036C411.465 442.635 404.867 442.036 399.469 439.64C394.071 437.843 388.673 434.25 384.474 429.458C382.675 427.661 380.875 425.265 379.076 422.27C377.276 419.276 376.077 417.479 374.877 414.484C372.478 409.692 370.079 403.702 368.279 398.312L376.077 395.916C377.876 400.708 379.676 406.098 382.675 410.291C383.874 412.687 385.074 414.484 386.873 416.88C388.673 418.677 389.872 420.473 391.672 422.27C395.27 425.265 399.469 427.661 403.668 430.057C407.866 431.854 412.665 431.854 417.463 431.255L416.863 442.036Z" fill="#A60ECA"/>
<path d="M361.082 382.739L359.282 368.962L366.48 368.363L368.279 381.541L361.082 382.739Z" fill="#A60ECA"/>
<path d="M358.682 350.993C358.682 340.212 359.282 323.441 359.282 312.66H362.281C361.681 323.441 361.681 339.613 362.281 350.395L358.682 350.993Z" fill="#A60ECA"/>
<path d="M552.419 59.2975C554.818 64.6882 556.617 70.6779 559.017 76.6675L549.42 79.0634C548.22 73.6727 546.421 67.6831 544.621 62.8913L552.419 59.2975Z" fill="#A60ECA"/>
<path d="M121.76 165.314V226.409C121.76 259.951 94.1691 287.503 60.5801 287.503C27.591 286.904 0 259.951 0 226.409V165.314H21.5929V226.409C21.5929 247.972 38.9872 265.342 60.5801 265.342C82.1731 265.342 99.5674 247.972 99.5674 226.409V165.314H121.76Z" fill="white"/>
<path d="M268.712 265.342V287.503H206.932C200.934 287.503 194.936 286.305 190.138 283.31C182.34 279.717 176.342 273.128 172.743 265.342C170.344 259.951 168.545 254.56 168.545 248.57V165.913H190.138V250.966C191.337 258.753 197.335 264.743 205.133 265.94L268.712 265.342Z" fill="white"/>
<path d="M404.267 165.913V187.476H354.484V287.503H332.891V187.476H283.107V165.913H404.267Z" fill="white"/>
<path d="M451.052 286.904V165.314H472.645V286.904H451.052Z" fill="white"/>
<path d="M744.356 165.314V286.904H722.763V209.638L701.17 225.81L683.176 239.586L665.182 225.81L643.589 209.638V286.904H621.996V165.314L643.589 182.085L682.576 212.034L721.563 182.085L744.356 165.314Z" fill="white"/>
<path d="M924.297 286.904H899.705L888.309 265.342L861.917 213.232L835.526 265.342L824.13 286.904H799.538L810.934 265.342L861.917 165.314L912.901 265.342L924.297 286.904Z" fill="white"/>
<path d="M1051.46 165.913V187.476H1001.67V287.503H980.079V187.476H929.695V165.913H1051.46Z" fill="white"/>
<path d="M1119.83 198.257V209.638H1198.41V231.201H1119.83V253.961C1119.83 259.951 1124.63 265.342 1131.23 265.342H1220V286.904H1131.23C1113.24 286.904 1098.24 271.93 1098.24 253.961V198.257C1098.24 180.288 1112.64 165.314 1131.23 165.314H1220V186.877H1131.23C1124.63 186.877 1119.83 192.268 1119.83 198.257Z" fill="white"/>
</g>
<defs>
<clipPath id="clip0_13_81">
<rect width="1220" height="463" fill="white"/>
</clipPath>
</defs>
</svg>
