<svg width="45" height="73" viewBox="0 0 45 73" fill="none" xmlns="http://www.w3.org/2000/svg">
<path d="M16.3432 15.771C16.7247 15.2988 17.2016 14.9211 17.6785 14.4489L18.4415 15.2988C18.06 15.6766 17.6785 16.0543 17.2016 16.621L16.3432 15.771Z" fill="#A60ECA"/>
<path d="M16.5339 63.8396C15.9617 64.3118 15.294 64.5951 14.7217 65.0673L13.9587 63.8396C14.531 63.4618 15.1032 63.1785 15.6755 62.6119L16.5339 63.8396Z" fill="#A60ECA"/>
<path d="M7.37759 23.7037C7.94987 22.1928 8.61752 20.8706 9.18979 19.4541L9.85744 19.8318C9.18979 21.1539 8.42676 22.4761 7.85449 23.8926C7.75911 23.8926 7.66373 23.7982 7.37759 23.7037Z" fill="#A60ECA"/>
<path d="M10.2389 17.282L11.9558 14.26L12.9095 14.8266L11.0974 17.7542L10.2389 17.282Z" fill="#A60ECA"/>
<path d="M13.1957 12.2768L14.531 10.2937L15.5801 11.0492L14.1495 12.9379L13.1957 12.2768Z" fill="#A60ECA"/>
<path d="M15.9617 8.40491C17.2016 6.89391 18.5369 5.38292 20.0629 4.15523C21.589 2.92755 23.2104 1.69986 25.118 0.944366L25.6903 2.64424C24.0688 3.21086 22.4474 4.24967 21.1121 5.38292C19.6814 6.6106 18.3461 7.83829 17.1062 9.34928L15.9617 8.40491Z" fill="#A60ECA"/>
<path d="M27.6932 0.094433C28.9331 -0.0944415 30.1731 -0.0944415 31.5084 0.18887L31.0315 2.07762C29.9823 1.7943 29.0285 1.7943 27.9794 1.88874L27.6932 0.094433Z" fill="#A60ECA"/>
<path d="M34.0836 1.51099C34.7512 1.98317 35.5143 2.5498 36.0865 3.11642C36.0865 3.11642 36.7542 3.77748 37.8034 5.38291C37.2311 5.8551 35.9912 6.42172 35.9912 6.42172L34.5605 4.53298C34.0836 4.06079 33.5113 3.49417 32.939 3.21086L34.0836 1.51099Z" fill="#FF007A"/>
<path d="M37.708 5.19405C38.8525 6.98835 39.5202 8.8771 39.9971 10.8603C40.4739 12.8435 40.7601 14.8266 41.0462 16.8098L38.8525 16.9987C38.7571 15.11 38.471 13.2212 38.0895 11.4269C37.708 9.6326 36.9449 7.83829 36.0865 6.32729L37.708 5.19405Z" fill="#FF007A"/>
<path d="M41.1416 19.3596L38.9479 19.4541C38.9479 23.1371 38.5664 27.5757 38.5664 27.5757L40.8555 27.859C40.6647 27.7645 41.1416 23.1371 41.1416 19.3596Z" fill="#FF007A"/>
<path d="M40.4739 30.5977C40.1878 32.5808 39.8063 34.564 39.3294 36.4528C38.8525 38.436 38.2802 40.3247 37.708 42.2134L35.6096 41.3635C36.1819 39.4748 36.7542 37.6805 37.1357 35.7917C37.5172 33.903 37.8987 32.0142 38.2802 30.1255L40.4739 30.5977Z" fill="#FF007A"/>
<path d="M36.9449 44.6688L35.705 48.0686L33.5113 47.1242L34.6559 43.7244L36.9449 44.6688Z" fill="#A60ECA"/>
<path d="M33.1298 54.0181C32.2714 55.8124 31.2222 57.5123 30.0777 59.1177C28.9331 60.8176 27.884 62.423 26.5487 63.8396L24.9272 62.423C26.1672 60.912 27.121 59.3066 28.2655 57.7956C29.3147 56.1902 30.1731 54.4903 31.0315 52.7904L33.1298 54.0181Z" fill="#A60ECA"/>
<path d="M24.8319 65.7283C24.0688 66.5783 23.2104 67.5226 22.352 68.2781L20.9213 66.6727C21.6844 65.9172 22.5428 64.9728 23.2104 64.2173L24.8319 65.7283Z" fill="#A60ECA"/>
<path d="M20.2537 69.7891C19.6814 70.2613 18.9184 70.8279 18.3461 71.2057L17.297 69.5058C17.8692 69.1281 18.5369 68.6559 19.1092 68.0893L20.2537 69.7891Z" fill="#FF007A"/>
<path d="M35.6096 52.696C35.2281 53.4515 34.8466 54.3014 34.2743 54.9625L32.4621 53.8292C32.8437 53.1682 33.2252 52.3182 33.7021 51.5627L35.6096 52.696Z" fill="#A60ECA"/>
<path d="M28.8378 66.1061C28.2655 66.7671 27.5978 67.5226 27.0256 68.1837L25.4995 66.5783C26.0718 66.0117 26.6441 65.2562 27.1209 64.5951L28.8378 66.1061Z" fill="#FF007A"/>
<path d="M16.1524 71.7723C15.294 72.1501 14.3402 72.5278 13.3864 72.8111C12.4326 73.0944 11.3835 73.0944 10.3343 73C9.28516 72.9056 8.33138 72.6223 7.28221 72.2445C6.42381 71.8668 5.47002 71.2057 4.80237 70.4502L5.66077 69.317C6.32842 69.8836 7.09145 70.4502 7.85448 70.7335C8.236 70.9224 8.61751 71.0168 9.0944 71.1113C9.47591 71.2057 9.85743 71.3001 10.3343 71.3001C11.0974 71.3001 12.0511 71.2057 12.8142 71.0168C13.5772 70.8279 14.531 70.4502 15.1986 69.978L16.1524 71.7723Z" fill="#A60ECA"/>
<path d="M3.46706 69.3169C2.79941 68.2781 2.22714 67.1449 1.84563 66.0116L2.99017 65.5395C3.37168 66.6727 4.03934 67.6171 4.61161 68.5614L3.46706 69.3169Z" fill="#A60ECA"/>
<path d="M1.17798 63.7451C0.987222 62.9896 0.891842 62.1397 0.796463 61.3842L1.65487 61.1953C1.75025 61.9508 1.94101 62.7063 2.13176 63.4618L1.17798 63.7451Z" fill="#A60ECA"/>
<path d="M0.796463 58.1733C0.701085 56.0957 0.796463 54.0181 1.0826 51.9405H1.46411C1.36874 54.0181 1.46411 56.0957 1.55949 58.0789L0.796463 58.1733Z" fill="#A60ECA"/>
<path d="M9.47591 22.8538C10.1436 21.4373 11.5742 18.8874 12.3373 17.5653L13.1957 18.1319C12.4327 19.4541 10.9066 21.9094 10.0482 23.2316L9.47591 22.8538Z" fill="#A60ECA"/>
<path d="M13.2911 16.4321L14.4356 14.6378L15.4848 15.3933L14.2448 17.0931L13.2911 16.4321Z" fill="#FF007A"/>
<path d="M16.057 12.3713C17.2016 10.9547 18.3461 9.6326 19.586 8.40491C20.9213 7.17723 22.2566 6.04398 23.8781 5.09961L24.5457 6.51617C23.1151 7.17723 21.7797 8.31048 20.5398 9.34929C19.2999 10.577 18.1554 11.7102 17.0108 13.1268L16.057 12.3713Z" fill="#FF007A"/>
<path d="M26.5487 4.24967C27.2163 4.06079 28.0747 4.06079 28.8378 4.15523L28.647 5.8551C28.0747 5.76067 27.4071 5.76067 26.8348 5.8551L26.5487 4.24967Z" fill="#A60ECA"/>
<path d="M30.65 6.70504L31.6037 5.28848L30.65 6.70504Z" fill="#0075CC"/>
<path d="M31.6991 5.28848C32.4621 5.85511 33.1298 6.70504 33.6067 7.46054C34.0836 8.21604 34.4651 9.16041 34.8466 10.0103C35.5143 11.8047 35.8958 13.599 36.1819 15.3933L34.2743 15.6766C34.0836 13.9767 33.7974 12.2768 33.1298 10.6714C32.8437 9.91591 32.5575 9.16041 32.0806 8.49935C31.6991 7.83829 31.2222 7.17723 30.5546 6.70504L31.6991 5.28848Z" fill="#A60ECA"/>
<path d="M36.468 17.7542L36.5634 19.9263L34.5605 20.1151V17.9431L36.468 17.7542Z" fill="#A60ECA"/>
<path d="M44.6706 16.8098L44.8614 19.3596H42.8584V16.9987L44.6706 16.8098Z" fill="#FF007A"/>
<path d="M41.4277 9.44373L42.0954 12.3713L39.8063 12.8435L39.234 10.0103L41.4277 9.44373Z" fill="#FF007A"/>
<path d="M36.468 23.7982C36.3727 25.5925 36.2773 27.3868 36.0865 29.1811C35.8958 30.9754 35.6096 32.7697 35.2281 34.564L33.1298 34.0918C33.5113 32.392 33.7975 30.5977 33.9882 28.8978C34.179 27.1979 34.3697 25.4036 34.4651 23.7038L36.468 23.7982Z" fill="#A60ECA"/>
<path d="M33.7021 40.9858C33.2252 42.6856 32.5575 44.3855 31.8899 46.0854C31.2222 47.7853 30.4592 49.3907 29.6962 50.9017L27.7886 49.8629C28.4563 48.2574 29.2193 46.652 29.8869 45.141C30.4592 43.5356 31.1269 41.8357 31.6037 40.1358L33.7021 40.9858Z" fill="#A60ECA"/>
<path d="M28.5516 54.7736L27.5025 56.6623L25.7856 55.4347L26.8348 53.6404L28.5516 54.7736Z" fill="#FF007A"/>
<path d="M26.6441 55.5291C24.2596 59.3066 23.0197 60.912 21.8751 62.2342C20.6352 63.6507 19.4907 64.8784 18.1554 66.1061L17.0108 64.6895C18.2507 63.5563 19.3953 62.3286 20.4444 61.0065C21.589 59.6843 23.9735 55.9069 24.9272 54.4903L26.6441 55.5291Z" fill="#FF007A"/>
<path d="M15.8663 67.806C15.294 68.1837 14.6264 68.5614 13.9587 68.9392L13.3864 67.3338C13.9587 67.0505 14.531 66.7671 15.1033 66.295L15.8663 67.806Z" fill="#A60ECA"/>
<path d="M11.2881 69.6947C10.4297 69.7891 9.38053 69.6947 8.52212 69.3169C7.66371 69.0336 6.80531 68.467 6.13766 67.7115C5.85152 67.4282 5.56539 67.0504 5.27925 66.5783C4.99312 66.1061 4.80236 65.8228 4.6116 65.3506C4.23009 64.5951 3.84857 63.6507 3.56244 62.8008L4.80236 62.423C5.0885 63.1785 5.37463 64.0285 5.85152 64.6895C6.04228 65.0673 6.23304 65.3506 6.51917 65.7283C6.80531 66.0116 6.99607 66.2949 7.2822 66.5783C7.85448 67.0504 8.52213 67.4282 9.18978 67.8059C9.85743 68.0893 10.6204 68.0893 11.3835 67.9948L11.2881 69.6947Z" fill="#A60ECA"/>
<path d="M2.41789 60.3454L2.13176 58.1733L3.2763 58.0789L3.56244 60.1565L2.41789 60.3454Z" fill="#A60ECA"/>
<path d="M2.03639 55.3402C2.03639 53.6403 2.13177 50.9961 2.13177 49.2962H2.60867C2.51329 50.9961 2.51329 53.5459 2.60867 55.2458L2.03639 55.3402Z" fill="#A60ECA"/>
<path d="M32.8437 9.34929C33.2252 10.1992 33.5113 11.1436 33.8928 12.088L32.3668 12.4657C32.176 11.6158 31.8899 10.6714 31.6037 9.91591L32.8437 9.34929Z" fill="#A60ECA"/>
</svg>
