<svg width="194" height="73" viewBox="0 0 194 73" fill="none" xmlns="http://www.w3.org/2000/svg">
<g clip-path="url(#clip0_9_7)">
<path d="M71.3432 15.771C71.7247 15.2988 72.2016 14.9211 72.6785 14.4489L73.4415 15.2988C73.06 15.6766 72.6785 16.0543 72.2016 16.621L71.3432 15.771Z" fill="#A60ECA"/>
<path d="M71.5339 63.8396C70.9617 64.3118 70.294 64.5951 69.7217 65.0673L68.9587 63.8396C69.531 63.4618 70.1032 63.1785 70.6755 62.6119L71.5339 63.8396Z" fill="#A60ECA"/>
<path d="M62.3776 23.7037C62.9499 22.1928 63.6175 20.8706 64.1898 19.4541L64.8574 19.8318C64.1898 21.1539 63.4268 22.4761 62.8545 23.8926C62.7591 23.8926 62.6637 23.7982 62.3776 23.7037Z" fill="#A60ECA"/>
<path d="M65.2389 17.282L66.9558 14.26L67.9095 14.8266L66.0974 17.7542L65.2389 17.282Z" fill="#A60ECA"/>
<path d="M68.1957 12.2768L69.531 10.2937L70.5801 11.0492L69.1495 12.9379L68.1957 12.2768Z" fill="#A60ECA"/>
<path d="M70.9617 8.40491C72.2016 6.89391 73.5369 5.38292 75.0629 4.15523C76.589 2.92755 78.2104 1.69986 80.118 0.944366L80.6903 2.64424C79.0688 3.21086 77.4474 4.24967 76.1121 5.38292C74.6814 6.6106 73.3461 7.83828 72.1062 9.34928L70.9617 8.40491Z" fill="#A60ECA"/>
<path d="M82.6932 0.094433C83.9331 -0.0944415 85.1731 -0.0944415 86.5084 0.18887L86.0315 2.07762C84.9823 1.7943 84.0285 1.7943 82.9794 1.88874L82.6932 0.094433Z" fill="#A60ECA"/>
<path d="M89.0836 1.51099C89.7512 1.98317 90.5143 2.5498 91.0865 3.11642C91.0865 3.11642 91.7542 3.77748 92.8034 5.38291C92.2311 5.8551 90.9912 6.42172 90.9912 6.42172L89.5605 4.53298C89.0836 4.06079 88.5113 3.49417 87.939 3.21086L89.0836 1.51099Z" fill="#FF007A"/>
<path d="M92.708 5.19405C93.8525 6.98835 94.5202 8.8771 94.9971 10.8603C95.4739 12.8435 95.7601 14.8266 96.0462 16.8098L93.8525 16.9987C93.7571 15.11 93.471 13.2212 93.0895 11.4269C92.708 9.6326 91.9449 7.83829 91.0865 6.32729L92.708 5.19405Z" fill="#FF007A"/>
<path d="M96.1416 19.3596L93.9479 19.4541C93.9479 23.1371 93.5664 27.5757 93.5664 27.5757L95.8555 27.859C95.6647 27.7645 96.1416 23.1371 96.1416 19.3596Z" fill="#FF007A"/>
<path d="M95.4739 30.5977C95.1878 32.5808 94.8063 34.564 94.3294 36.4528C93.8525 38.436 93.2802 40.3247 92.708 42.2134L90.6096 41.3635C91.1819 39.4748 91.7542 37.6805 92.1357 35.7917C92.5172 33.903 92.8987 32.0142 93.2802 30.1255L95.4739 30.5977Z" fill="#FF007A"/>
<path d="M91.9449 44.6688L90.705 48.0686L88.5113 47.1242L89.6559 43.7244L91.9449 44.6688Z" fill="#A60ECA"/>
<path d="M88.1298 54.0181C87.2714 55.8124 86.2222 57.5123 85.0777 59.1177C83.9331 60.8176 82.884 62.423 81.5487 63.8396L79.9272 62.423C81.1672 60.912 82.121 59.3066 83.2655 57.7956C84.3147 56.1902 85.1731 54.4903 86.0315 52.7904L88.1298 54.0181Z" fill="#A60ECA"/>
<path d="M79.8319 65.7283C79.0688 66.5783 78.2104 67.5226 77.352 68.2781L75.9213 66.6727C76.6844 65.9172 77.5428 64.9728 78.2104 64.2173L79.8319 65.7283Z" fill="#A60ECA"/>
<path d="M75.2537 69.7891C74.6814 70.2613 73.9184 70.8279 73.3461 71.2057L72.297 69.5058C72.8692 69.1281 73.5369 68.6559 74.1092 68.0893L75.2537 69.7891Z" fill="#FF007A"/>
<path d="M90.6096 52.696C90.2281 53.4515 89.8466 54.3014 89.2743 54.9625L87.4621 53.8292C87.8437 53.1682 88.2252 52.3182 88.7021 51.5627L90.6096 52.696Z" fill="#A60ECA"/>
<path d="M83.8378 66.1061C83.2655 66.7671 82.5978 67.5226 82.0256 68.1837L80.4995 66.5783C81.0718 66.0117 81.6441 65.2562 82.1209 64.5951L83.8378 66.1061Z" fill="#FF007A"/>
<path d="M71.1524 71.7723C70.294 72.1501 69.3402 72.5278 68.3864 72.8111C67.4326 73.0944 66.3835 73.0944 65.3343 73C64.2852 72.9056 63.3314 72.6223 62.2822 72.2445C61.4238 71.8668 60.47 71.2057 59.8024 70.4502L60.6608 69.317C61.3284 69.8836 62.0915 70.4502 62.8545 70.7335C63.236 70.9224 63.6175 71.0168 64.0944 71.1113C64.4759 71.2057 64.8574 71.3001 65.3343 71.3001C66.0974 71.3001 67.0511 71.2057 67.8142 71.0168C68.5772 70.8279 69.531 70.4502 70.1986 69.978L71.1524 71.7723Z" fill="#A60ECA"/>
<path d="M58.4671 69.3169C57.7994 68.2781 57.2271 67.1449 56.8456 66.0116L57.9902 65.5395C58.3717 66.6727 59.0393 67.6171 59.6116 68.5614L58.4671 69.3169Z" fill="#A60ECA"/>
<path d="M56.178 63.7451C55.9872 62.9896 55.8918 62.1397 55.7965 61.3842L56.6549 61.1953C56.7503 61.9508 56.941 62.7063 57.1318 63.4618L56.178 63.7451Z" fill="#A60ECA"/>
<path d="M55.7965 58.1733C55.7011 56.0957 55.7965 54.0181 56.0826 51.9405H56.4641C56.3687 54.0181 56.4641 56.0957 56.5595 58.0789L55.7965 58.1733Z" fill="#A60ECA"/>
<path d="M64.4759 22.8538C65.1436 21.4373 66.5742 18.8874 67.3373 17.5653L68.1957 18.1319C67.4327 19.4541 65.9066 21.9094 65.0482 23.2316L64.4759 22.8538Z" fill="#A60ECA"/>
<path d="M68.2911 16.4321L69.4356 14.6378L70.4848 15.3933L69.2448 17.0931L68.2911 16.4321Z" fill="#FF007A"/>
<path d="M71.057 12.3713C72.2016 10.9547 73.3461 9.6326 74.586 8.40491C75.9213 7.17723 77.2566 6.04398 78.8781 5.09961L79.5457 6.51617C78.1151 7.17723 76.7797 8.31048 75.5398 9.34929C74.2999 10.577 73.1554 11.7102 72.0108 13.1268L71.057 12.3713Z" fill="#FF007A"/>
<path d="M81.5487 4.24967C82.2163 4.06079 83.0747 4.06079 83.8378 4.15523L83.647 5.8551C83.0747 5.76067 82.4071 5.76067 81.8348 5.8551L81.5487 4.24967Z" fill="#A60ECA"/>
<path d="M85.65 6.70504L86.6037 5.28848L85.65 6.70504Z" fill="#0075CC"/>
<path d="M86.6991 5.28848C87.4621 5.85511 88.1298 6.70504 88.6067 7.46054C89.0836 8.21604 89.4651 9.16041 89.8466 10.0103C90.5143 11.8047 90.8958 13.599 91.1819 15.3933L89.2743 15.6766C89.0836 13.9767 88.7974 12.2768 88.1298 10.6714C87.8437 9.91591 87.5575 9.16041 87.0806 8.49935C86.6991 7.83829 86.2222 7.17723 85.5546 6.70504L86.6991 5.28848Z" fill="#A60ECA"/>
<path d="M91.468 17.7542L91.5634 19.9263L89.5605 20.1151V17.9431L91.468 17.7542Z" fill="#A60ECA"/>
<path d="M99.6706 16.8098L99.8614 19.3596H97.8584V16.9987L99.6706 16.8098Z" fill="#FF007A"/>
<path d="M96.4277 9.44373L97.0954 12.3713L94.8063 12.8435L94.234 10.0103L96.4277 9.44373Z" fill="#FF007A"/>
<path d="M91.468 23.7982C91.3727 25.5925 91.2773 27.3868 91.0865 29.1811C90.8958 30.9754 90.6096 32.7697 90.2281 34.564L88.1298 34.0918C88.5113 32.392 88.7975 30.5977 88.9882 28.8978C89.179 27.1979 89.3697 25.4036 89.4651 23.7038L91.468 23.7982Z" fill="#A60ECA"/>
<path d="M88.7021 40.9858C88.2252 42.6856 87.5575 44.3855 86.8899 46.0854C86.2222 47.7853 85.4592 49.3907 84.6962 50.9017L82.7886 49.8629C83.4563 48.2574 84.2193 46.652 84.8869 45.141C85.4592 43.5356 86.1269 41.8357 86.6037 40.1358L88.7021 40.9858Z" fill="#A60ECA"/>
<path d="M83.5516 54.7736L82.5025 56.6623L80.7856 55.4347L81.8348 53.6404L83.5516 54.7736Z" fill="#FF007A"/>
<path d="M81.6441 55.5291C79.2596 59.3066 78.0197 60.912 76.8751 62.2342C75.6352 63.6507 74.4907 64.8784 73.1554 66.1061L72.0108 64.6895C73.2507 63.5563 74.3953 62.3286 75.4444 61.0065C76.589 59.6843 78.9735 55.9069 79.9272 54.4903L81.6441 55.5291Z" fill="#FF007A"/>
<path d="M70.8663 67.806C70.294 68.1837 69.6264 68.5614 68.9587 68.9392L68.3864 67.3338C68.9587 67.0505 69.531 66.7671 70.1033 66.295L70.8663 67.806Z" fill="#A60ECA"/>
<path d="M66.2881 69.6947C65.4297 69.7891 64.3805 69.6947 63.5221 69.3169C62.6637 69.0336 61.8053 68.467 61.1377 67.7115C60.8515 67.4282 60.5654 67.0504 60.2793 66.5783C59.9931 66.1061 59.8024 65.8228 59.6116 65.3506C59.2301 64.5951 58.8486 63.6507 58.5624 62.8008L59.8024 62.423C60.0885 63.1785 60.3746 64.0285 60.8515 64.6895C61.0423 65.0673 61.233 65.3506 61.5192 65.7283C61.8053 66.0116 61.9961 66.2949 62.2822 66.5783C62.8545 67.0504 63.5221 67.4282 64.1898 67.8059C64.8574 68.0893 65.6205 68.0893 66.3835 67.9948L66.2881 69.6947Z" fill="#A60ECA"/>
<path d="M57.4179 60.3454L57.1318 58.1733L58.2763 58.0789L58.5624 60.1565L57.4179 60.3454Z" fill="#A60ECA"/>
<path d="M57.0364 55.3402C57.0364 53.6403 57.1318 50.9961 57.1318 49.2962H57.6087C57.5133 50.9961 57.5133 53.5459 57.6087 55.2458L57.0364 55.3402Z" fill="#A60ECA"/>
<path d="M87.8437 9.34929C88.2252 10.1992 88.5113 11.1436 88.8928 12.088L87.3668 12.4657C87.176 11.6158 86.8899 10.6714 86.6037 9.91591L87.8437 9.34929Z" fill="#A60ECA"/>
<path d="M19.3618 26.0647V35.6973C19.3618 40.9858 14.9744 45.3299 9.63324 45.3299C4.38741 45.2354 0 40.9858 0 35.6973V26.0647H3.43363V35.6973C3.43363 39.097 6.19961 41.8357 9.63324 41.8357C13.0669 41.8357 15.8328 39.097 15.8328 35.6973V26.0647H19.3618Z" fill="white"/>
<path d="M42.7296 41.8357V45.3299H32.9056C31.9518 45.3299 30.998 45.141 30.235 44.6688C28.9951 44.1022 28.0413 43.0634 27.469 41.8357C27.0875 40.9858 26.8014 40.1358 26.8014 39.1915V26.1591H30.235V39.5692C30.4258 40.7969 31.3795 41.7413 32.6195 41.9301L42.7296 41.8357Z" fill="white"/>
<path d="M64.2851 26.1591V29.5589H56.3687V45.3299H52.9351V29.5589H45.0187V26.1591H64.2851Z" fill="white"/>
<path d="M71.7247 45.2354V26.0647H75.1583V45.2354H71.7247Z" fill="white"/>
<path d="M118.365 26.0647V45.2354H114.931V33.053L111.498 35.6028L108.636 37.7749L105.775 35.6028L102.341 33.053V45.2354H98.9076V26.0647L102.341 28.7089L108.541 33.4308L114.74 28.7089L118.365 26.0647Z" fill="white"/>
<path d="M146.978 45.2354H143.068L141.256 41.8357L137.059 33.6197L132.862 41.8357L131.05 45.2354H127.14L128.952 41.8357L137.059 26.0647L145.166 41.8357L146.978 45.2354Z" fill="white"/>
<path d="M167.199 26.1591V29.5589H159.282V45.3299H155.849V29.5589H147.837V26.1591H167.199Z" fill="white"/>
<path d="M178.072 31.2587V33.053H190.566V36.4528H178.072V40.0414C178.072 40.9858 178.835 41.8357 179.884 41.8357H194V45.2354H179.884C177.023 45.2354 174.638 42.8745 174.638 40.0414V31.2587C174.638 28.4256 176.927 26.0647 179.884 26.0647H194V29.4644H179.884C178.835 29.4644 178.072 30.3144 178.072 31.2587Z" fill="white"/>
</g>
<defs>
<clipPath id="clip0_9_7">
<rect width="194" height="73" fill="white"/>
</clipPath>
</defs>
</svg>
